<mxfile host="app.diagrams.net" agent="Mozilla/5.0 (Windows NT 10.0; Win64; x64) AppleWebKit/537.36 (KHTML, like Gecko) Chrome/99.0.4844.84 Safari/537.36" version="26.2.10">
  <diagram name="PÃ¡gina-1" id="wpZFTcaMxzy7xfmb7_ld">
    <mxGraphModel dx="816" dy="459" grid="1" gridSize="10" guides="1" tooltips="1" connect="1" arrows="1" fold="1" page="1" pageScale="1" pageWidth="827" pageHeight="1169" math="0" shadow="0">
      <root>
        <mxCell id="0" />
        <mxCell id="1" parent="0" />
        <mxCell id="FCiHniijyR62t2aJxtzZ-12" value="&lt;div&gt;&lt;br&gt;&lt;/div&gt;&lt;div&gt;&lt;br&gt;&lt;/div&gt;&lt;div&gt;&lt;br&gt;&lt;/div&gt;&lt;div&gt;&lt;br&gt;&lt;/div&gt;&lt;div&gt;&lt;br&gt;&lt;/div&gt;&lt;div&gt;&lt;br&gt;&lt;/div&gt;&lt;div&gt;&lt;br&gt;&lt;/div&gt;&lt;div&gt;&lt;br&gt;&lt;/div&gt;&lt;div&gt;&lt;br&gt;&lt;/div&gt;&lt;div&gt;&lt;br&gt;&lt;/div&gt;&lt;div&gt;&lt;br&gt;&lt;/div&gt;&lt;div&gt;&lt;br&gt;&lt;/div&gt;&lt;div&gt;&lt;br&gt;&lt;/div&gt;&lt;div&gt;&lt;br&gt;&lt;/div&gt;&lt;div&gt;&lt;br&gt;&lt;/div&gt;&lt;div&gt;&lt;br&gt;&lt;/div&gt;&lt;div&gt;Adapters&lt;/div&gt;" style="shape=hexagon;perimeter=hexagonPerimeter2;whiteSpace=wrap;html=1;fixedSize=1;" vertex="1" parent="1">
          <mxGeometry x="170" y="270" width="430" height="320" as="geometry" />
        </mxCell>
        <mxCell id="FCiHniijyR62t2aJxtzZ-1" value="Application" style="shape=hexagon;perimeter=hexagonPerimeter2;whiteSpace=wrap;html=1;fixedSize=1;" vertex="1" parent="1">
          <mxGeometry x="280" y="360" width="210" height="150" as="geometry" />
        </mxCell>
        <mxCell id="FCiHniijyR62t2aJxtzZ-2" value="Port" style="rounded=0;whiteSpace=wrap;html=1;rotation=-75;" vertex="1" parent="1">
          <mxGeometry x="280" y="390" width="50" height="25" as="geometry" />
        </mxCell>
        <mxCell id="FCiHniijyR62t2aJxtzZ-3" value="Port" style="rounded=0;whiteSpace=wrap;html=1;rotation=75;" vertex="1" parent="1">
          <mxGeometry x="440" y="390" width="50" height="25" as="geometry" />
        </mxCell>
        <mxCell id="FCiHniijyR62t2aJxtzZ-4" value="Port" style="rounded=0;whiteSpace=wrap;html=1;rotation=105;" vertex="1" parent="1">
          <mxGeometry x="440" y="460" width="50" height="25" as="geometry" />
        </mxCell>
        <mxCell id="FCiHniijyR62t2aJxtzZ-5" value="" style="rounded=0;whiteSpace=wrap;html=1;rotation=30;" vertex="1" parent="1">
          <mxGeometry x="210" y="330" width="60" height="20" as="geometry" />
        </mxCell>
        <mxCell id="FCiHniijyR62t2aJxtzZ-8" value="" style="endArrow=none;html=1;rounded=0;exitX=0.063;exitY=0.243;exitDx=0;exitDy=0;exitPerimeter=0;entryX=1;entryY=0.5;entryDx=0;entryDy=0;" edge="1" parent="1" source="FCiHniijyR62t2aJxtzZ-1" target="FCiHniijyR62t2aJxtzZ-5">
          <mxGeometry width="50" height="50" relative="1" as="geometry">
            <mxPoint x="220" y="430" as="sourcePoint" />
            <mxPoint x="270" y="380" as="targetPoint" />
          </mxGeometry>
        </mxCell>
        <mxCell id="FCiHniijyR62t2aJxtzZ-9" value="" style="rounded=0;whiteSpace=wrap;html=1;rotation=30;" vertex="1" parent="1">
          <mxGeometry x="190" y="380" width="60" height="20" as="geometry" />
        </mxCell>
        <mxCell id="FCiHniijyR62t2aJxtzZ-10" value="" style="endArrow=none;html=1;rounded=0;exitX=1;exitY=0.5;exitDx=0;exitDy=0;entryX=0.5;entryY=0;entryDx=0;entryDy=0;" edge="1" parent="1" source="FCiHniijyR62t2aJxtzZ-9" target="FCiHniijyR62t2aJxtzZ-2">
          <mxGeometry width="50" height="50" relative="1" as="geometry">
            <mxPoint x="303" y="406" as="sourcePoint" />
            <mxPoint x="276" y="365" as="targetPoint" />
          </mxGeometry>
        </mxCell>
        <mxCell id="FCiHniijyR62t2aJxtzZ-14" value="" style="rounded=0;whiteSpace=wrap;html=1;rotation=30;" vertex="1" parent="1">
          <mxGeometry x="510" y="490" width="60" height="20" as="geometry" />
        </mxCell>
        <mxCell id="FCiHniijyR62t2aJxtzZ-15" value="" style="endArrow=none;html=1;rounded=0;exitX=0;exitY=0.5;exitDx=0;exitDy=0;entryX=0.5;entryY=0;entryDx=0;entryDy=0;" edge="1" parent="1" source="FCiHniijyR62t2aJxtzZ-14" target="FCiHniijyR62t2aJxtzZ-4">
          <mxGeometry width="50" height="50" relative="1" as="geometry">
            <mxPoint x="507" y="520.5" as="sourcePoint" />
            <mxPoint x="480" y="479.5" as="targetPoint" />
          </mxGeometry>
        </mxCell>
        <mxCell id="FCiHniijyR62t2aJxtzZ-16" value="DDBB" style="shape=cylinder3;whiteSpace=wrap;html=1;boundedLbl=1;backgroundOutline=1;size=15;" vertex="1" parent="1">
          <mxGeometry x="600" y="490" width="60" height="80" as="geometry" />
        </mxCell>
        <mxCell id="FCiHniijyR62t2aJxtzZ-17" value="User" style="shape=umlActor;verticalLabelPosition=bottom;verticalAlign=top;html=1;" vertex="1" parent="1">
          <mxGeometry x="130" y="350" width="30" height="60" as="geometry" />
        </mxCell>
        <mxCell id="FCiHniijyR62t2aJxtzZ-19" value="External App" style="shape=hexagon;perimeter=hexagonPerimeter2;whiteSpace=wrap;html=1;fixedSize=1;" vertex="1" parent="1">
          <mxGeometry x="60" y="260" width="120" height="80" as="geometry" />
        </mxCell>
      </root>
    </mxGraphModel>
  </diagram>
</mxfile>
